<?xml version="1.0" encoding="UTF-8" standalone="no"?>
<!DOCTYPE svg PUBLIC "-//W3C//DTD SVG 1.1//EN"
 "http://www.w3.org/Graphics/SVG/1.1/DTD/svg11.dtd">
<!-- Generated by graphviz version 2.47.3 (20210619.1520)
 -->
<!-- Title: dependencies Pages: 1 -->
<svg width="256pt" height="174pt"
 viewBox="0.00 0.00 256.00 173.80" xmlns="http://www.w3.org/2000/svg" xmlns:xlink="http://www.w3.org/1999/xlink">
<g id="graph0" class="graph" transform="scale(1 1) rotate(0) translate(4 169.8)">
<title>dependencies</title>
<polygon fill="white" stroke="transparent" points="-4,4 -4,-169.8 252,-169.8 252,4 -4,4"/>
<text text-anchor="middle" x="124" y="-8.2" font-family="sans-serif" font-size="14.00">dependencies</text>
<g id="clust1" class="cluster">
<title>cluster_AppModule</title>
<polygon fill="none" stroke="black" stroke-dasharray="1,5" points="8,-32.8 8,-157.8 240,-157.8 240,-32.8 8,-32.8"/>
</g>
<g id="clust3" class="cluster">
<title>cluster_AppModule_imports</title>
<polygon fill="none" stroke="black" points="16,-40.8 16,-92.8 232,-92.8 232,-40.8 16,-40.8"/>
</g>
<!-- FixerModule -->
<g id="node1" class="node">
<title>FixerModule</title>
<polygon fill="#8dd3c7" stroke="black" points="223.6,-84.8 220.6,-88.8 199.6,-88.8 196.6,-84.8 134.4,-84.8 134.4,-48.8 223.6,-48.8 223.6,-84.8"/>
<text text-anchor="middle" x="179" y="-62.6" font-family="Times,serif" font-size="14.00">FixerModule</text>
</g>
<!-- AppModule -->
<g id="node3" class="node">
<title>AppModule</title>
<polygon fill="#8dd3c7" stroke="black" points="165.66,-149.8 162.66,-153.8 141.66,-153.8 138.66,-149.8 82.34,-149.8 82.34,-113.8 165.66,-113.8 165.66,-149.8"/>
<text text-anchor="middle" x="124" y="-127.6" font-family="Times,serif" font-size="14.00">AppModule</text>
</g>
<!-- FixerModule&#45;&gt;AppModule -->
<g id="edge1" class="edge">
<title>FixerModule&#45;&gt;AppModule</title>
<path fill="none" stroke="black" d="M150.14,-84.91C150.14,-84.91 150.14,-103.79 150.14,-103.79"/>
<polygon fill="black" stroke="black" points="146.64,-103.79 150.14,-113.79 153.64,-103.79 146.64,-103.79"/>
</g>
<!-- TradeModule -->
<g id="node2" class="node">
<title>TradeModule</title>
<polygon fill="#8dd3c7" stroke="black" points="116.19,-84.8 113.19,-88.8 92.19,-88.8 89.19,-84.8 23.81,-84.8 23.81,-48.8 116.19,-48.8 116.19,-84.8"/>
<text text-anchor="middle" x="70" y="-62.6" font-family="Times,serif" font-size="14.00">TradeModule</text>
</g>
<!-- TradeModule&#45;&gt;AppModule -->
<g id="edge2" class="edge">
<title>TradeModule&#45;&gt;AppModule</title>
<path fill="none" stroke="black" d="M99.13,-84.91C99.13,-84.91 99.13,-103.79 99.13,-103.79"/>
<polygon fill="black" stroke="black" points="95.63,-103.79 99.13,-113.79 102.63,-103.79 95.63,-103.79"/>
</g>
</g>
</svg>
