<?xml version="1.0" encoding="UTF-8" standalone="no"?>
<!DOCTYPE svg PUBLIC "-//W3C//DTD SVG 1.1//EN"
 "http://www.w3.org/Graphics/SVG/1.1/DTD/svg11.dtd">
<!-- Generated by graphviz version 2.47.3 (20210619.1520)
 -->
<!-- Title: dependencies Pages: 1 -->
<svg width="602pt" height="250pt"
 viewBox="0.00 0.00 602.00 249.80" xmlns="http://www.w3.org/2000/svg" xmlns:xlink="http://www.w3.org/1999/xlink">
<g id="graph0" class="graph" transform="scale(1 1) rotate(0) translate(4 245.8)">
<title>dependencies</title>
<polygon fill="white" stroke="transparent" points="-4,4 -4,-245.8 598,-245.8 598,4 -4,4"/>
<text text-anchor="middle" x="297" y="-8.2" font-family="sans-serif" font-size="14.00">dependencies</text>
<g id="clust1" class="cluster">
<title>cluster_AppModule</title>
<polygon fill="none" stroke="black" stroke-dasharray="1,5" points="174,-32.8 174,-233.8 310,-233.8 310,-32.8 174,-32.8"/>
</g>
<g id="clust3" class="cluster">
<title>cluster_AppModule_imports</title>
<polygon fill="none" stroke="black" points="182,-40.8 182,-168.8 290,-168.8 290,-40.8 182,-40.8"/>
</g>
<g id="clust7" class="cluster">
<title>cluster_FixerModule</title>
<polygon fill="none" stroke="black" stroke-dasharray="1,5" points="318,-108.8 318,-176.8 586,-176.8 586,-108.8 318,-108.8"/>
</g>
<g id="clust10" class="cluster">
<title>cluster_FixerModule_exports</title>
<polygon fill="none" stroke="black" points="470,-116.8 470,-168.8 578,-168.8 578,-116.8 470,-116.8"/>
</g>
<g id="clust12" class="cluster">
<title>cluster_FixerModule_providers</title>
<polygon fill="none" stroke="black" points="326,-116.8 326,-168.8 462,-168.8 462,-116.8 326,-116.8"/>
</g>
<g id="clust13" class="cluster">
<title>cluster_TradeModule</title>
<polygon fill="none" stroke="black" stroke-dasharray="1,5" points="8,-32.8 8,-100.8 166,-100.8 166,-32.8 8,-32.8"/>
</g>
<g id="clust18" class="cluster">
<title>cluster_TradeModule_providers</title>
<polygon fill="none" stroke="black" points="16,-40.8 16,-92.8 158,-92.8 158,-40.8 16,-40.8"/>
</g>
<!-- FixerModule -->
<g id="node1" class="node">
<title>FixerModule</title>
<polygon fill="#8dd3c7" stroke="black" points="281.6,-84.8 278.6,-88.8 257.6,-88.8 254.6,-84.8 192.4,-84.8 192.4,-48.8 281.6,-48.8 281.6,-84.8"/>
<text text-anchor="middle" x="237" y="-62.6" font-family="Times,serif" font-size="14.00">FixerModule</text>
</g>
<!-- TradeModule -->
<g id="node2" class="node">
<title>TradeModule</title>
<polygon fill="#8dd3c7" stroke="black" points="282.19,-160.8 279.19,-164.8 258.19,-164.8 255.19,-160.8 189.81,-160.8 189.81,-124.8 282.19,-124.8 282.19,-160.8"/>
<text text-anchor="middle" x="236" y="-138.6" font-family="Times,serif" font-size="14.00">TradeModule</text>
</g>
<!-- FixerModule&#45;&gt;TradeModule -->
<g id="edge5" class="edge">
<title>FixerModule&#45;&gt;TradeModule</title>
<path fill="none" stroke="black" d="M237,-84.81C237,-84.81 237,-114.65 237,-114.65"/>
<polygon fill="black" stroke="black" points="233.5,-114.65 237,-124.65 240.5,-114.65 233.5,-114.65"/>
</g>
<!-- AppModule -->
<g id="node3" class="node">
<title>AppModule</title>
<polygon fill="#8dd3c7" stroke="black" points="289.66,-225.8 286.66,-229.8 265.66,-229.8 262.66,-225.8 206.34,-225.8 206.34,-189.8 289.66,-189.8 289.66,-225.8"/>
<text text-anchor="middle" x="248" y="-203.6" font-family="Times,serif" font-size="14.00">AppModule</text>
</g>
<!-- FixerModule&#45;&gt;AppModule -->
<g id="edge1" class="edge">
<title>FixerModule&#45;&gt;AppModule</title>
<path fill="none" stroke="black" d="M281.79,-75.8C284.38,-75.8 285.96,-75.8 285.96,-75.8 285.96,-75.8 285.96,-179.72 285.96,-179.72"/>
<polygon fill="black" stroke="black" points="282.46,-179.72 285.96,-189.72 289.46,-179.72 282.46,-179.72"/>
</g>
<!-- FixerService  -->
<g id="node4" class="node">
<title>FixerService </title>
<polygon fill="#fb8072" stroke="black" points="569.53,-160.8 478.47,-160.8 478.47,-124.8 569.53,-124.8 569.53,-160.8"/>
<text text-anchor="middle" x="524" y="-138.6" font-family="Times,serif" font-size="14.00">FixerService </text>
</g>
<!-- FixerModule&#45;&gt;FixerService  -->
<g id="edge3" class="edge">
<title>FixerModule&#45;&gt;FixerService </title>
<path fill="none" stroke="black" stroke-dasharray="5,2" d="M281.84,-57.8C362.56,-57.8 524,-57.8 524,-57.8 524,-57.8 524,-114.77 524,-114.77"/>
<polygon fill="black" stroke="black" points="520.5,-114.77 524,-124.77 527.5,-114.77 520.5,-114.77"/>
</g>
<!-- TradeModule&#45;&gt;AppModule -->
<g id="edge2" class="edge">
<title>TradeModule&#45;&gt;AppModule</title>
<path fill="none" stroke="black" d="M244.13,-160.91C244.13,-160.91 244.13,-179.79 244.13,-179.79"/>
<polygon fill="black" stroke="black" points="240.63,-179.79 244.13,-189.79 247.63,-179.79 240.63,-179.79"/>
</g>
<!-- FixerService -->
<g id="node5" class="node">
<title>FixerService</title>
<ellipse fill="#fdb462" stroke="black" cx="394" cy="-142.8" rx="60.25" ry="18"/>
<text text-anchor="middle" x="394" y="-138.6" font-family="Times,serif" font-size="14.00">FixerService</text>
</g>
<!-- FixerService&#45;&gt;FixerModule -->
<g id="edge4" class="edge">
<title>FixerService&#45;&gt;FixerModule</title>
<path fill="none" stroke="black" d="M394,-124.79C394,-102.31 394,-66.8 394,-66.8 394,-66.8 291.57,-66.8 291.57,-66.8"/>
<polygon fill="black" stroke="black" points="291.57,-63.3 281.57,-66.8 291.57,-70.3 291.57,-63.3"/>
</g>
<!-- TradeService -->
<g id="node6" class="node">
<title>TradeService</title>
<ellipse fill="#fdb462" stroke="black" cx="87" cy="-66.8" rx="62.52" ry="18"/>
<text text-anchor="middle" x="87" y="-62.6" font-family="Times,serif" font-size="14.00">TradeService</text>
</g>
<!-- TradeService&#45;&gt;TradeModule -->
<g id="edge6" class="edge">
<title>TradeService&#45;&gt;TradeModule</title>
<path fill="none" stroke="black" d="M87,-84.81C87,-107.29 87,-142.8 87,-142.8 87,-142.8 179.67,-142.8 179.67,-142.8"/>
<polygon fill="black" stroke="black" points="179.67,-146.3 189.67,-142.8 179.67,-139.3 179.67,-146.3"/>
</g>
</g>
</svg>
