<?xml version="1.0" encoding="UTF-8" standalone="no"?>
<!DOCTYPE svg PUBLIC "-//W3C//DTD SVG 1.1//EN"
 "http://www.w3.org/Graphics/SVG/1.1/DTD/svg11.dtd">
<!-- Generated by graphviz version 2.47.3 (20210619.1520)
 -->
<!-- Title: dependencies Pages: 1 -->
<svg width="296pt" height="174pt"
 viewBox="0.00 0.00 296.00 173.80" xmlns="http://www.w3.org/2000/svg" xmlns:xlink="http://www.w3.org/1999/xlink">
<g id="graph0" class="graph" transform="scale(1 1) rotate(0) translate(4 169.8)">
<title>dependencies</title>
<polygon fill="white" stroke="transparent" points="-4,4 -4,-169.8 292,-169.8 292,4 -4,4"/>
<text text-anchor="middle" x="144" y="-8.2" font-family="sans-serif" font-size="14.00">dependencies</text>
<g id="clust1" class="cluster">
<title>cluster_TradeModule</title>
<polygon fill="none" stroke="black" stroke-dasharray="1,5" points="8,-32.8 8,-157.8 280,-157.8 280,-32.8 8,-32.8"/>
</g>
<g id="clust3" class="cluster">
<title>cluster_TradeModule_imports</title>
<polygon fill="none" stroke="black" points="166,-40.8 166,-92.8 272,-92.8 272,-40.8 166,-40.8"/>
</g>
<g id="clust6" class="cluster">
<title>cluster_TradeModule_providers</title>
<polygon fill="none" stroke="black" points="16,-40.8 16,-92.8 158,-92.8 158,-40.8 16,-40.8"/>
</g>
<!-- FixerModule -->
<g id="node1" class="node">
<title>FixerModule</title>
<polygon fill="#8dd3c7" stroke="black" points="263.6,-84.8 260.6,-88.8 239.6,-88.8 236.6,-84.8 174.4,-84.8 174.4,-48.8 263.6,-48.8 263.6,-84.8"/>
<text text-anchor="middle" x="219" y="-62.6" font-family="Times,serif" font-size="14.00">FixerModule</text>
</g>
<!-- TradeModule -->
<g id="node2" class="node">
<title>TradeModule</title>
<polygon fill="#8dd3c7" stroke="black" points="199.19,-149.8 196.19,-153.8 175.19,-153.8 172.19,-149.8 106.81,-149.8 106.81,-113.8 199.19,-113.8 199.19,-149.8"/>
<text text-anchor="middle" x="153" y="-127.6" font-family="Times,serif" font-size="14.00">TradeModule</text>
</g>
<!-- FixerModule&#45;&gt;TradeModule -->
<g id="edge1" class="edge">
<title>FixerModule&#45;&gt;TradeModule</title>
<path fill="none" stroke="black" d="M186.77,-84.91C186.77,-84.91 186.77,-103.79 186.77,-103.79"/>
<polygon fill="black" stroke="black" points="183.27,-103.79 186.77,-113.79 190.27,-103.79 183.27,-103.79"/>
</g>
<!-- TradeService -->
<g id="node3" class="node">
<title>TradeService</title>
<ellipse fill="#fdb462" stroke="black" cx="87" cy="-66.8" rx="62.52" ry="18"/>
<text text-anchor="middle" x="87" y="-62.6" font-family="Times,serif" font-size="14.00">TradeService</text>
</g>
<!-- TradeService&#45;&gt;TradeModule -->
<g id="edge2" class="edge">
<title>TradeService&#45;&gt;TradeModule</title>
<path fill="none" stroke="black" d="M128.21,-80.58C128.21,-80.58 128.21,-103.35 128.21,-103.35"/>
<polygon fill="black" stroke="black" points="124.71,-103.35 128.21,-113.35 131.71,-103.35 124.71,-103.35"/>
</g>
</g>
</svg>
